<?xml version="1.0" standalone="no"?>
<!DOCTYPE svg PUBLIC "-//W3C//DTD SVG 20010904//EN"
 "http://www.w3.org/TR/2001/REC-SVG-20010904/DTD/svg10.dtd">
<svg version="1.0" xmlns="http://www.w3.org/2000/svg"
 width="100.000000pt" height="100.000000pt" viewBox="0 0 100.000000 100.000000"
 preserveAspectRatio="xMidYMid meet">
<metadata>
Created by potrace 1.16, written by Peter Selinger 2001-2019
</metadata>
<g transform="translate(0.000000,100.000000) scale(0.100000,-0.100000)"
fill="#ffffff" stroke="none">
<path d="M490 930 c0 -13 -7 -20 -20 -20 -11 0 -20 -4 -20 -10 0 -5 9 -10 20
-10 43 0 19 -39 -75 -127 l-95 -88 0 -62 c0 -64 11 -78 38 -51 9 9 12 4 12
-25 l0 -37 -118 0 -118 0 -17 -35 c-21 -44 -21 -55 -2 -55 13 0 15 -22 15
-135 l0 -135 390 0 390 0 0 135 c0 113 2 135 15 135 19 0 19 11 -2 55 l-17 35
-118 0 -118 0 0 37 c0 29 3 34 12 25 27 -27 38 -13 38 51 l0 63 -95 88 c-94
87 -118 126 -75 126 11 0 20 5 20 10 0 6 -9 10 -20 10 -13 0 -20 7 -20 20 0
11 -4 20 -10 20 -5 0 -10 -9 -10 -20z m105 -202 c69 -66 86 -88 84 -106 -4
-22 -11 -17 -86 52 -44 42 -87 76 -93 76 -7 0 -49 -34 -94 -77 -75 -71 -81
-74 -85 -52 -3 19 14 40 85 107 48 45 91 82 95 82 3 0 46 -37 94 -82z m-27
-74 l62 -56 0 -219 0 -219 -95 0 -95 0 0 88 c0 104 13 136 56 140 46 5 58 -18
65 -122 l6 -91 1 99 c2 115 -8 136 -66 136 -63 0 -72 -18 -72 -142 l0 -108
-30 0 -30 0 0 219 0 219 63 56 c34 31 64 56 67 56 3 0 33 -25 68 -56z m-218
-349 c0 -93 -2 -105 -17 -106 -17 -1 -17 -2 0 -6 9 -2 17 -11 17 -19 0 -11
-21 -14 -110 -14 -91 0 -110 3 -110 15 0 12 17 15 88 17 l87 2 -87 3 -88 4 0
104 0 105 110 0 110 0 0 -105z m520 0 l0 -105 -82 -2 -83 -2 83 -3 c64 -3 82
-7 82 -18 0 -12 -20 -15 -110 -15 -91 0 -110 3 -110 15 0 8 8 16 18 16 16 1
16 2 0 6 -16 4 -18 18 -18 109 l0 104 110 0 110 0 0 -105z"/>
</g>
</svg>
